<?xml version="1.0" standalone="no"?>
<!DOCTYPE svg PUBLIC "-//W3C//DTD SVG 20010904//EN"
 "http://www.w3.org/TR/2001/REC-SVG-20010904/DTD/svg10.dtd">
<svg version="1.0" xmlns="http://www.w3.org/2000/svg"
 width="260.000000pt" height="260.000000pt" viewBox="0 0 260.000000 260.000000"
 preserveAspectRatio="xMidYMid meet">
<metadata>
Created by potrace 1.14, written by Peter Selinger 2001-2017
</metadata>
<g transform="translate(0.000000,260.000000) scale(0.100000,-0.100000)"
fill="#000000" stroke="none">
<path d="M935 1659 c-128 -17 -319 -60 -425 -95 -148 -50 -252 -108 -326 -179
-117 -114 -119 -222 -6 -335 129 -128 369 -219 718 -272 201 -30 592 -32 789
-5 504 71 817 233 833 430 10 130 -118 251 -370 347 -136 52 -394 106 -552
115 l-91 6 -80 -96 c-43 -52 -89 -105 -101 -116 l-22 -20 -98 115 -99 114 -50
0 c-27 0 -81 -5 -120 -9z m-160 -249 c72 -36 95 -75 95 -164 0 -83 -18 -122
-77 -160 -46 -30 -149 -48 -254 -44 l-74 3 -3 198 -2 199 132 -4 c118 -3 139
-6 183 -28z m1424 -58 c14 -11 13 -12 -6 -2 -15 7 -23 19 -22 33 1 20 2 20 6
2 3 -11 13 -25 22 -33z m68 26 c-3 -8 -6 -5 -6 6 -1 11 2 17 5 13 3 -3 4 -12
1 -19z m-37 2 c0 -5 -5 -10 -11 -10 -5 0 -7 5 -4 10 3 6 8 10 11 10 2 0 4 -4
4 -10z m-690 -55 c0 -42 -2 -45 -23 -40 -12 4 -35 2 -50 -4 -26 -10 -26 -11
-29 -123 l-3 -113 -52 -3 -53 -3 0 160 0 161 43 0 c24 0 48 -5 53 -10 8 -8 15
-6 24 5 7 9 28 15 51 15 l39 0 0 -45z m270 2 l0 -42 -39 0 c-22 0 -43 -4 -48
-9 -4 -4 -10 -58 -13 -119 l-5 -112 -52 -3 -53 -3 0 160 0 161 44 0 c26 0 46
-5 49 -12 3 -10 10 -8 23 5 11 10 34 17 56 17 l38 0 0 -43z m293 29 c66 -27
72 -44 72 -185 l0 -126 -38 -3 c-21 -2 -45 2 -52 8 -10 9 -19 8 -36 -1 -33
-17 -119 -15 -156 4 -34 18 -43 34 -43 81 0 55 49 86 163 101 53 7 61 25 22
51 -31 20 -95 13 -143 -16 l-33 -20 3 42 c3 38 7 45 38 60 43 22 156 24 203 4z
m-1063 -103 c0 -85 3 -110 17 -125 18 -20 54 -23 84 -8 17 10 19 22 19 125 l0
115 55 0 55 0 0 -160 0 -160 -43 0 c-24 0 -47 4 -53 10 -6 6 -27 4 -59 -6 -40
-12 -59 -12 -97 -4 -73 18 -80 32 -90 172 -5 67 -7 127 -4 135 4 9 24 13 61
13 l55 0 0 -107z m1215 97 c-3 -5 -12 -10 -18 -10 -7 0 -6 4 3 10 19 12 23 12
15 0z m-829 -356 c-22 -57 -15 -83 14 -49 14 16 30 20 30 7 0 -5 -12 -14 -26
-21 l-26 -11 21 -35 c11 -20 16 -37 10 -40 -13 -9 -29 3 -41 33 l-11 27 -10
-27 c-11 -29 -22 -35 -32 -18 -10 15 47 150 63 150 9 0 12 -6 8 -16z m210 -29
c2 -11 -3 -26 -10 -35 -8 -8 -17 -25 -20 -37 -8 -26 3 -29 37 -11 20 10 21 10
8 -6 -21 -25 -47 -37 -65 -30 -21 8 -20 29 6 91 22 53 39 64 44 28z m-618 -16
c17 -11 17 -13 -3 -55 -11 -24 -26 -43 -32 -44 -16 0 -16 21 -1 55 6 14 8 28
5 32 -10 9 -43 -24 -57 -58 -25 -59 -41 -25 -18 38 10 28 16 33 35 28 12 -3
25 -1 28 5 8 13 21 13 43 -1z m75 -1 c2 -7 0 -28 -5 -46 -12 -42 -5 -50 19
-23 64 74 87 88 56 33 -13 -23 -15 -34 -7 -42 18 -18 60 55 44 75 -10 12 -10
15 3 15 22 0 36 -22 26 -45 -31 -77 32 -48 65 30 3 6 9 4 14 -4 6 -9 4 -26 -7
-52 -12 -31 -20 -39 -35 -35 -11 3 -26 0 -33 -6 -9 -7 -17 -7 -28 2 -13 11
-20 11 -40 0 -19 -10 -27 -10 -39 -1 -10 9 -20 9 -33 2 -30 -16 -41 0 -40 57
2 41 5 52 19 52 9 0 18 -6 21 -12z m277 -9 c0 -5 -9 -9 -20 -9 -22 0 -27 16
-7 23 15 5 27 -1 27 -14z m194 4 c7 -18 -28 -62 -40 -50 -4 4 1 14 12 21 15
12 16 17 7 27 -10 10 -16 5 -28 -25 -17 -40 -13 -58 10 -49 8 3 15 1 15 -5 0
-19 -53 -25 -66 -7 -17 22 -7 51 28 80 35 29 53 32 62 8z m176 8 c0 -5 -5 -11
-11 -13 -9 -3 -9 -10 0 -26 25 -47 -23 -93 -58 -57 -15 17 -15 17 2 11 29 -9
36 1 24 33 -8 23 -8 33 2 45 15 17 41 22 41 7z"/>
<path d="M580 1247 c0 -63 2 -116 5 -119 3 -2 33 -1 67 3 80 9 98 29 98 106 0
30 -5 63 -11 75 -14 26 -68 48 -119 48 l-40 0 0 -113z"/>
<path d="M2004 1173 c-12 -2 -30 -13 -39 -23 -27 -30 -3 -54 49 -47 42 6 58
21 54 52 -3 20 -24 26 -64 18z"/>
</g>
</svg>
